HIERARCHY
ROOT Hips
{
	OFFSET 0.000000 0.000000 0.000000
	CHANNELS 6 Xposition Yposition Zposition Zrotation Yrotation Xrotation 
	JOINT LHipJoint
	{
		OFFSET 0.000000 0.000000 0.000000
		CHANNELS 3 Zrotation Yrotation Xrotation
		JOINT LeftUpLeg
		{
			OFFSET 1.363060 -1.794630 0.839290
			CHANNELS 3 Zrotation Yrotation Xrotation
			JOINT LeftLeg
			{
				OFFSET 2.448110 -6.726130 0.000000
				CHANNELS 3 Zrotation Yrotation Xrotation
				JOINT LeftFoot
				{
					OFFSET 2.562200 -7.039590 0.000000
					CHANNELS 3 Zrotation Yrotation Xrotation
					JOINT LeftToeBase
					{
						OFFSET 0.157640 -0.433110 2.322550
						CHANNELS 3 Zrotation Yrotation Xrotation
						End Site
						{
							OFFSET 0.000000 0.000000 0.000000
						}
					}
				}
			}
		}
	}
	JOINT RHipJoint
	{
		OFFSET 0.000000 0.000000 0.000000
		CHANNELS 3 Zrotation Yrotation Xrotation
		JOINT RightUpLeg
		{
			OFFSET -1.305520 -1.794630 0.839290
			CHANNELS 3 Zrotation Yrotation Xrotation
			JOINT RightLeg
			{
				OFFSET -2.542530 -6.985550 0.000000
				CHANNELS 3 Zrotation Yrotation Xrotation
				JOINT RightFoot
				{
					OFFSET -2.568260 -7.056230 0.000000
					CHANNELS 3 Zrotation Yrotation Xrotation
					JOINT RightToeBase
					{
						OFFSET -0.164730 -0.452590 2.363150
						CHANNELS 3 Zrotation Yrotation Xrotation
						End Site
						{
							OFFSET 0.000000 0.000000 0.000000
						}
					}
				}
			}
		}
	}
	JOINT LowerBack
	{
		OFFSET 0.000000 0.000000 0.000000
		CHANNELS 3 Zrotation Yrotation Xrotation
		JOINT Spine
		{
			OFFSET 0.028270 2.035590 -0.193380
			CHANNELS 3 Zrotation Yrotation Xrotation
			JOINT Spine1
			{
				OFFSET 0.056720 2.048850 -0.042750
				CHANNELS 3 Zrotation Yrotation Xrotation
				JOINT Neck
				{
					OFFSET 0.000000 0.000000 0.000000
					CHANNELS 3 Zrotation Yrotation Xrotation
					JOINT Neck1
					{
						OFFSET -0.054170 1.746240 0.172020
						CHANNELS 3 Zrotation Yrotation Xrotation
						JOINT Head
						{
							OFFSET 0.104070 1.761360 -0.123970
							CHANNELS 3 Zrotation Yrotation Xrotation
							End Site
							{
								OFFSET 0.000000 0.000000 0.000000
							}
						}
					}
				}
				JOINT LeftShoulder
				{
					OFFSET 0.000000 0.000000 0.000000
					CHANNELS 3 Zrotation Yrotation Xrotation
					JOINT LeftArm
					{
						OFFSET 3.362410 1.200890 -0.311210
						CHANNELS 3 Zrotation Yrotation Xrotation
						JOINT LeftForeArm
						{
							OFFSET 4.983000 -0.000000 -0.000000
							CHANNELS 3 Zrotation Yrotation Xrotation
							JOINT LeftHand
							{
								OFFSET 3.483560 -0.000000 -0.000000
								CHANNELS 3 Zrotation Yrotation Xrotation
								JOINT LeftFingerBase
								{
									OFFSET 0.000000 0.000000 0.000000
									CHANNELS 3 Zrotation Yrotation Xrotation
									JOINT LeftHandIndex1
									{
										OFFSET 0.715260 -0.000000 -0.000000
										CHANNELS 3 Zrotation Yrotation Xrotation
										End Site
										{
											OFFSET 0.000000 0.000000 0.000000
										}
									}
								}
								JOINT LThumb
								{
									OFFSET 0.000000 0.000000 0.000000
									CHANNELS 3 Zrotation Yrotation Xrotation
									End Site
									{
										OFFSET 0.000000 0.000000 0.000000
									}
								}
							}
						}
					}
				}
				JOINT RightShoulder
				{
					OFFSET 0.000000 0.000000 0.000000
					CHANNELS 3 Zrotation Yrotation Xrotation
					JOINT RightArm
					{
						OFFSET -3.136600 1.374050 -0.404650
						CHANNELS 3 Zrotation Yrotation Xrotation
						JOINT RightForeArm
						{
							OFFSET -5.241900 -0.000000 -0.000000
							CHANNELS 3 Zrotation Yrotation Xrotation
							JOINT RightHand
							{
								OFFSET -3.444170 -0.000000 -0.000000
								CHANNELS 3 Zrotation Yrotation Xrotation
								JOINT RightFingerBase
								{
									OFFSET 0.000000 0.000000 0.000000
									CHANNELS 3 Zrotation Yrotation Xrotation
									JOINT RightHandIndex1
									{
										OFFSET -0.622530 -0.000000 -0.000000
										CHANNELS 3 Zrotation Yrotation Xrotation
										End Site
										{
											OFFSET 0.000000 0.000000 0.000000
										}
									}
								}
								JOINT RThumb
								{
									OFFSET 0.000000 0.000000 0.000000
									CHANNELS 3 Zrotation Yrotation Xrotation
									End Site
									{
										OFFSET 0.000000 0.000000 0.000000
									}
								}
							}
						}
					}
				}
			}
		}
	}
}
MOTION
Frames: 10
Frame Time: 0.008333
1.135099 22.298893 0.817494 -0.377289 -2.281711 4.424785 -2.244704 6.131777 5.393378 -16.759007 -1.807508 -7.395197 0.162054 3.806457 13.157365 -6.798160 30.999346 11.663433 0.504900 4.555100 12.643700 -2.500094 -6.754124 3.241015 22.920352 10.763242 -4.328946 -2.536405 -5.650785 19.929107 8.870331 -36.248892 12.005372 -0.234300 -3.115200 8.599500 4.294995 1.786646 -1.652034 -0.479047 1.763368 5.887793 -1.264150 1.227668 -9.139506 -9.118274 -3.611653 -17.529148 8.458350 -4.593295 13.853023 3.125200 -1.868200 5.173800 -4.974610 -0.841996 -0.231891 -27.270631 8.860984 14.012714 131.352966 -53.512952 -95.297714 0.302418 -0.263076 -13.050906 37.678340 14.888652 11.457400 -7.125000 0.000000 0.000000 9.679200 48.805600 0.916400 4.865778 0.856696 0.342590 13.861963 9.090153 10.869699 -51.412203 50.994024 -30.629254 0.201550 1.151784 8.342863 -35.183824 5.454405 -2.841300 7.125000 0.000000 0.000000 -6.447400 -25.048600 -3.130100 
1.130105 22.605646 0.780326 -0.088692 -1.898335 3.129717 -2.324290 6.274831 5.587393 -17.026523 -0.613167 -7.256495 0.468078 4.335422 14.330954 -5.450429 29.558585 18.040017 0.307700 3.566200 9.859400 -2.528876 -6.818682 3.345686 23.020228 9.553293 -4.345884 -3.024364 -6.327956 21.809493 7.422483 -34.410779 17.191445 -0.223000 -3.039600 8.388900 4.031531 1.506028 0.001741 -0.978614 1.494999 7.794427 -1.010713 1.137716 -10.480165 -9.585075 -3.675140 -17.653671 9.635117 -4.689721 11.857045 3.425800 -1.894200 4.785900 -4.857682 -0.627687 -0.390134 -29.028772 11.693710 10.433173 127.918980 -54.900928 -92.670594 0.294641 -0.299006 -11.798406 37.144535 14.861949 11.248900 -7.125000 0.000000 0.000000 9.145900 48.713400 0.844200 4.979843 0.559197 0.087331 15.396374 6.768345 10.031629 -49.671013 50.301600 -28.991289 0.218036 1.112488 8.723378 -36.043487 4.270100 -2.094900 7.125000 0.000000 0.000000 -7.220800 -26.410100 -3.279900 
1.113106 22.908556 0.729041 -0.225997 -1.261751 1.856476 -2.269652 6.392899 5.796443 -16.824750 0.092304 -7.165931 0.688479 4.755590 15.513424 -3.910758 26.221950 22.560237 0.306700 3.560400 9.843100 -2.536098 -6.832383 3.491720 23.706979 9.114269 -4.117069 -3.463502 -6.886292 23.640694 6.593976 -33.307257 19.839012 -0.116500 -2.200700 6.060500 3.737792 1.148921 1.659049 -0.763916 1.142338 9.898478 -0.857130 1.001015 -11.830581 -9.708037 -3.740579 -18.089942 10.022805 -4.701112 10.403775 3.535800 -1.905200 4.522900 -4.828920 -0.413719 -0.569278 -31.169820 13.912026 6.738201 123.027270 -56.593167 -88.859953 0.282707 -0.345151 -10.429251 36.882682 14.984892 11.264300 -7.125000 0.000000 0.000000 8.894900 48.866300 0.854400 4.973920 0.321143 -0.149846 16.975109 4.580239 8.708895 -47.554976 49.420493 -27.074262 0.241094 1.076033 8.694759 -36.303230 3.320991 -1.444900 7.125000 0.000000 0.000000 -7.534600 -27.520400 -3.226400 
1.089480 23.209162 0.690721 -0.392426 -0.561612 0.998039 -2.227043 6.474569 5.893259 -16.609618 0.462853 -7.308103 0.921906 5.151241 16.458634 -3.303254 26.114135 25.452431 0.117000 2.205400 6.073500 -2.533581 -6.832347 3.612001 24.399110 9.152958 -4.119755 -3.828192 -7.329937 25.151762 6.558662 -33.862170 20.513197 -0.058600 -1.562500 4.298100 3.357153 0.856927 3.011051 -0.490368 0.824512 11.301008 -0.608924 0.889495 -12.877952 -9.434601 -3.796637 -18.601191 9.687732 -4.706145 9.867244 3.450300 -1.919100 4.440200 -4.858143 -0.224012 -0.685676 -33.449357 15.688972 3.390629 116.499461 -58.370373 -83.680631 0.268505 -0.408488 -9.700055 36.586870 15.177836 11.330700 -7.125000 0.000000 0.000000 8.616900 49.123500 0.882200 4.972368 0.160104 -0.323547 18.648299 2.454710 7.283080 -44.819131 48.218496 -24.698123 0.279329 1.035462 8.253441 -36.049492 3.151023 -1.343800 7.125000 0.000000 0.000000 -7.392600 -27.679400 -3.136700 
1.070848 23.503237 0.684670 -0.104138 0.083280 0.524165 -2.263725 6.488055 5.907804 -16.893778 0.259967 -7.269996 1.063930 5.368217 16.962970 -3.142133 26.752583 26.704326 0.062000 1.606300 4.418900 -2.569044 -6.831775 3.653594 24.513900 9.189100 -4.337061 -4.104322 -7.667075 26.231063 6.647500 -34.750004 20.963388 -0.080500 -1.830000 5.036100 2.885565 0.667414 3.967327 -0.911250 0.597028 11.777129 -0.112693 0.831343 -13.565458 -8.797664 -3.781124 -18.650517 8.933054 -4.700576 10.053734 3.236700 -1.935400 4.443300 -4.880847 -0.072681 -0.713556 -35.627166 17.142538 0.797117 108.432494 -59.867564 -77.177480 0.254379 -0.488040 -10.090618 36.658849 16.039910 12.022400 -7.125000 0.000000 0.000000 8.723600 50.276700 1.142200 5.086439 0.053256 -0.440537 20.376536 0.356207 6.315377 -41.686313 46.697974 -22.038133 0.345640 1.007853 7.171333 -36.240459 2.201741 -0.673900 7.125000 0.000000 0.000000 -7.701400 -28.810200 -3.062000 
1.063165 23.789917 0.713386 0.338947 0.714003 0.272420 -2.331549 6.478652 5.917558 -17.369147 -0.486499 -6.872396 1.068649 5.360366 16.934400 -3.133630 27.011422 26.938560 0.058600 1.561600 4.295500 -2.619293 -6.833720 3.666097 24.356312 9.210441 -4.473240 -4.265469 -7.868768 26.871725 6.485476 -34.760373 21.606979 -0.138600 -2.399200 6.610200 2.554665 0.514508 4.313588 -1.610355 0.392907 11.946504 0.364361 0.769214 -13.828746 -8.223969 -3.636233 -18.411146 8.350072 -4.576238 10.690239 3.069700 -1.885800 4.514500 -4.894941 0.018042 -0.680027 -37.674009 18.116961 -1.217426 98.600958 -60.722628 -69.155532 0.248428 -0.586754 -11.654085 36.786108 17.075510 12.875800 -7.125000 0.000000 0.000000 8.892300 51.676200 1.471700 5.272959 -0.016919 -0.549151 22.005098 -1.515045 5.656228 -38.316888 44.839477 -19.252027 0.436962 0.999713 5.779464 -36.395599 0.655896 0.467600 7.125000 0.000000 0.000000 -8.066500 -30.704900 -2.841800 
1.062396 24.071219 0.770146 0.595154 1.321659 0.426276 -2.389927 6.447086 5.910932 -17.681596 -1.717917 -6.516128 0.941565 5.173312 16.504184 -3.096158 26.248901 26.500194 0.006500 0.522000 1.434400 -2.657134 -6.831378 3.675479 24.319096 9.477710 -4.653306 -4.302803 -7.918375 27.018751 6.174841 -34.165077 22.330666 -0.128200 -2.307900 6.357500 2.540112 0.420991 3.885425 -2.185385 0.250722 11.979216 0.615842 0.699841 -13.604156 -7.737747 -3.492194 -18.309276 7.719448 -4.426724 11.688752 2.892000 -1.822300 4.692900 -4.943353 0.069620 -0.591870 -39.492795 18.453378 -2.647520 87.627659 -60.550564 -59.994414 0.241446 -0.680830 -14.072861 36.370377 17.538525 13.086500 -7.125000 0.000000 0.000000 8.499000 52.263800 1.528700 5.474739 -0.056358 -0.650026 23.498674 -3.258849 5.028829 -34.988554 42.760443 -16.601442 0.527769 1.004561 4.337268 -35.795836 -0.325558 1.170500 7.125000 0.000000 0.000000 -7.771900 -31.897200 -2.511900 
1.062012 24.345894 0.839775 0.767315 1.874230 1.023028 -2.429920 6.365320 5.840546 -17.921389 -3.151019 -6.461003 0.732886 4.874116 15.915061 -3.188007 24.725956 24.742172 0.050800 1.453900 3.998600 -2.692322 -6.810360 3.658967 24.332804 10.208591 -4.973551 -4.225167 -7.836698 26.735604 6.128791 -33.887025 22.266568 -0.079400 -1.817900 5.002800 2.611248 0.370151 3.099680 -2.681757 0.138495 11.527799 0.797294 0.634463 -13.150049 -7.292510 -3.388089 -18.477437 7.065783 -4.318641 13.141791 2.705000 -1.772800 5.003400 -5.020101 0.114736 -0.468575 -40.960862 18.536200 -3.404649 77.321096 -59.518026 -51.092735 0.211825 -0.738807 -17.386289 36.302831 17.945204 13.389600 -7.125000 0.000000 0.000000 8.508200 52.790800 1.640600 5.698839 -0.090159 -0.703900 25.016671 -5.025330 4.618654 -32.102711 40.764961 -14.394312 0.610429 1.016329 3.225777 -35.012129 -0.849885 1.510600 7.125000 0.000000 0.000000 -7.266500 -32.518600 -2.236500 
1.061916 24.610100 0.909885 0.598202 2.322961 1.808618 -2.431629 6.292219 5.716621 -17.802884 -4.327860 -6.722539 0.557674 4.610649 15.282625 -3.605516 24.648380 22.532358 0.009300 0.622800 1.711300 -2.694831 -6.771636 3.639903 24.654648 11.392317 -5.221281 -4.056286 -7.642824 26.154039 6.434697 -34.019906 21.089796 -0.040200 -1.294300 3.558900 2.838129 0.350741 2.301604 -2.688033 0.068128 10.771037 0.752435 0.574418 -12.668514 -7.162795 -3.216413 -18.624282 6.829695 -4.115110 14.366418 2.647500 -1.662700 5.267100 -5.149217 0.144057 -0.371215 -42.264721 18.530776 -3.753409 68.504068 -58.056742 -43.359497 0.168422 -0.779201 -21.083756 36.773758 18.465968 14.012600 -7.125000 0.000000 0.000000 9.123200 53.530100 1.926300 5.915081 -0.117083 -0.734555 26.669814 -6.592165 3.982545 -29.465264 38.751839 -12.445811 0.698999 0.997459 3.120745 -34.565568 -0.808561 1.443500 7.125000 0.000000 0.000000 -6.974300 -32.430100 -2.160400 
1.063645 24.861629 0.976152 0.350922 2.674483 2.525798 -2.405170 6.238434 5.600869 -17.607778 -5.139410 -7.110795 0.433237 4.405413 14.733352 -4.092148 25.327375 20.641171 0.000600 0.154500 0.424500 -2.663597 -6.737795 3.650038 24.953251 12.752599 -5.369881 -3.848704 -7.397977 25.438981 6.753107 -34.024346 19.674848 -0.024500 -1.009600 2.775400 2.981845 0.379112 1.476045 -2.289160 0.050537 10.265992 0.614390 0.542105 -12.178279 -7.454380 -3.055356 -18.682548 7.001854 -3.888244 14.896961 2.728800 -1.535800 5.392000 -5.303755 0.143279 -0.342357 -43.639952 18.325362 -3.899516 60.928579 -56.314396 -36.758855 0.121596 -0.819440 -24.188997 37.389674 18.952011 14.690700 -7.125000 0.000000 0.000000 9.913300 54.253000 2.271200 6.106585 -0.125678 -0.782386 28.355261 -7.743320 2.758779 -26.962533 36.621433 -10.663059 0.781888 0.955938 3.642119 -33.907211 -0.505990 1.173200 7.125000 0.000000 0.000000 -6.479900 -32.000900 -2.072800 
